<svg viewBox="0 0 700 700" xmlns="http://www.w3.org/2000/svg">
    <path d="M110 50h5v600h-5zM205 50h5v600h-5zM300 50h5v600h-5zM395 50h5v600h-5zM490 50h5v600h-5zM585 50h5v600h-5z" style="fill:#f3322c" />
    <text x="100" y="40" font-size="32">A</text>
    <text x="195" y="40" font-size="32">B</text>
    <text x="290" y="40" font-size="32">C</text>
    <text x="385" y="40" font-size="32">D</text>
    <text x="480" y="40" font-size="32">E</text>
    <text x="580" y="40" font-size="32">F</text>
    <path d="M400.01 181.29v6.25h-37.44V168.77h-6.25v18.77h-37.55V168.77H300v-6.25h18.77V149.99h37.55v12.53h6.25V149.99h37.44V149.99z" style="fill:#f3322c" />
    <path d="M393.85 175.03v6.26h-12.51V156.26h12.51v18.77z" />
    <path d="M381.34 175.03v6.26h-12.51V156.26h12.51v18.77z" style="fill:#fff" />
    <path d="M350.06 175.03v6.26h-12.52V156.26h12.52v18.77z" />
    <path d="M337.54 175.03v6.26h-12.51V156.26h12.51v18.77z" style="fill:#fff" />
    <path d="M400.01 581.29v6.25h-37.44V568.77h-6.25v18.77h-37.55V568.77H300v-6.25h18.77V549.99h37.55v12.53h6.25V549.99h37.44V549.99z" style="fill:#f3322c" />
    <path d="M393.85 575.03v6.26h-12.51V556.26h12.51v18.77z" />
    <path d="M381.34 575.03v6.26h-12.51V556.26h12.51v18.77z" style="fill:#fff" />
    <path d="M350.06 575.03v6.26h-12.52V556.26h12.52v18.77z" />
    <path d="M337.54 575.03v6.26h-12.51V556.26h12.51v18.77z" style="fill:#fff" />
    <path d="M590.01 281.29v6.25h-37.44V268.77h-6.25v18.77h-37.55V268.77H490v-6.25h18.77V249.99h37.55v12.53h6.25V249.99h37.44V249.99z" style="fill:#f3322c" />
    <path d="M583.85 275.03v6.26h-12.51V256.26h12.51v18.77z" />
    <path d="M571.34 275.03v6.26h-12.51V256.26h12.51v18.77z" style="fill:#fff" />
    <path d="M540.06 275.03v6.26h-12.52V256.26h12.52v18.77z" />
    <path d="M527.54 275.03v6.26h-12.51V256.26h12.51v18.77z" style="fill:#fff" />
    <path d="M495.01 231.29v6.25h-37.44V218.77h-6.25v18.77h-37.55V218.77H395v-6.25h18.77V199.99h37.55v12.53h6.25V199.99h37.44V199.99z" style="fill:#f3322c" />
    <path d="M488.85 225.03v6.26h-12.51V206.26h12.51v18.77z" />
    <path d="M476.34 225.03v6.26h-12.51V206.26h12.51v18.77z" style="fill:#fff" />
    <path d="M445.06 225.03v6.26h-12.52V206.26h12.52v18.77z" />
    <path d="M432.54 225.03v6.26h-12.51V206.26h12.51v18.77z" style="fill:#fff" />
    <path d="M210.01 181.29v6.25h-37.44V168.77h-6.25v18.77h-37.55V168.77H110v-6.25h18.77V149.99h37.55v12.53h6.25V149.99h37.44V149.99z" style="fill:#f3322c" />
    <path d="M203.85 175.03v6.26h-12.51V156.26h12.51v18.77z" />
    <path d="M191.34 175.03v6.26h-12.51V156.26h12.51v18.77z" style="fill:#fff" />
    <path d="M160.06 175.03v6.26h-12.52V156.26h12.52v18.77z" />
    <path d="M147.54 175.03v6.26h-12.51V156.26h12.51v18.77z" style="fill:#fff" />
    <path d="M210.01 481.29v6.25h-37.44V468.77h-6.25v18.77h-37.55V468.77H110v-6.25h18.77V449.99h37.55v12.53h6.25V449.99h37.44V449.99z" style="fill:#f3322c" />
    <path d="M203.85 475.03v6.26h-12.51V456.26h12.51v18.77z" />
    <path d="M191.34 475.03v6.26h-12.51V456.26h12.51v18.77z" style="fill:#fff" />
    <path d="M160.06 475.03v6.26h-12.52V456.26h12.52v18.77z" />
    <path d="M147.54 475.03v6.26h-12.51V456.26h12.51v18.77z" style="fill:#fff" />
    <path d="M305.01 231.29v6.25h-37.44V218.77h-6.25v18.77h-37.55V218.77H205v-6.25h18.77V199.99h37.55v12.53h6.25V199.99h37.44V199.99z" style="fill:#f3322c" />
    <path d="M298.85 225.03v6.26h-12.51V206.26h12.51v18.77z" />
    <path d="M286.34 225.03v6.26h-12.51V206.26h12.51v18.77z" style="fill:#fff" />
    <path d="M255.06 225.03v6.26h-12.52V206.26h12.52v18.77z" />
    <path d="M242.54 225.03v6.26h-12.51V206.26h12.51v18.77z" style="fill:#fff" />
    <path d="M305.01 331.29v6.25h-37.44V318.77h-6.25v18.77h-37.55V318.77H205v-6.25h18.77V299.99h37.55v12.53h6.25V299.99h37.44V299.99z" style="fill:#f3322c" />
    <path d="M298.85 325.03v6.26h-12.51V306.26h12.51v18.77z" />
    <path d="M286.34 325.03v6.26h-12.51V306.26h12.51v18.77z" style="fill:#fff" />
    <path d="M255.06 325.03v6.26h-12.52V306.26h12.52v18.77z" />
    <path d="M242.54 325.03v6.26h-12.51V306.26h12.51v18.77z" style="fill:#fff" />
    <path d="M400.01 381.29v6.25h-37.44V368.77h-6.25v18.77h-37.55V368.77H300v-6.25h18.77V349.99h37.55v12.53h6.25V349.99h37.44V349.99z" style="fill:#f3322c" />
    <path d="M393.85 375.03v6.26h-12.51V356.26h12.51v18.77z" />
    <path d="M381.34 375.03v6.26h-12.51V356.26h12.51v18.77z" style="fill:#fff" />
    <path d="M350.06 375.03v6.26h-12.52V356.26h12.52v18.77z" />
    <path d="M337.54 375.03v6.26h-12.51V356.26h12.51v18.77z" style="fill:#fff" />
    <path d="M495.01 431.29v6.25h-37.44V418.77h-6.25v18.77h-37.55V418.77H395v-6.25h18.77V399.99h37.55v12.53h6.25V399.99h37.44V399.99z" style="fill:#f3322c" />
    <path d="M488.85 425.03v6.26h-12.51V406.26h12.51v18.77z" />
    <path d="M476.34 425.03v6.26h-12.51V406.26h12.51v18.77z" style="fill:#fff" />
    <path d="M445.06 425.03v6.26h-12.52V406.26h12.52v18.77z" />
    <path d="M432.54 425.03v6.26h-12.51V406.26h12.51v18.77z" style="fill:#fff" />
    <path d="M495.01 531.29v6.25h-37.44V518.77h-6.25v18.77h-37.55V518.77H395v-6.25h18.77V499.99h37.55v12.53h6.25V499.99h37.44V499.99z" style="fill:#f3322c" />
    <path d="M488.85 525.03v6.26h-12.51V506.26h12.51v18.77z" />
    <path d="M476.34 525.03v6.26h-12.51V506.26h12.51v18.77z" style="fill:#fff" />
    <path d="M445.06 525.03v6.26h-12.52V506.26h12.52v18.77z" />
    <path d="M432.54 525.03v6.26h-12.51V506.26h12.51v18.77z" style="fill:#fff" />
    <path d="M590.01 581.29v6.25h-37.44V568.77h-6.25v18.77h-37.55V568.77H490v-6.25h18.77V549.99h37.55v12.53h6.25V549.99h37.44V549.99z" style="fill:#f3322c" />
    <path d="M583.85 575.03v6.26h-12.51V556.26h12.51v18.77z" />
    <path d="M571.34 575.03v6.26h-12.51V556.26h12.51v18.77z" style="fill:#fff" />
    <path d="M540.06 575.03v6.26h-12.52V556.26h12.52v18.77z" />
    <path d="M527.54 575.03v6.26h-12.51V556.26h12.51v18.77z" style="fill:#fff" />
</svg>
